<?xml version="1.0" encoding="UTF-8" standalone="no"?>
<svg
   xmlns:dc="http://purl.org/dc/elements/1.1/"
   xmlns:cc="http://creativecommons.org/ns#"
   xmlns:rdf="http://www.w3.org/1999/02/22-rdf-syntax-ns#"
   xmlns:svg="http://www.w3.org/2000/svg"
   xmlns="http://www.w3.org/2000/svg"
   width="100%"
   height="100%"
   viewBox="0 0 64 64"
   version="1.1"
   xml:space="preserve"
   style="fill-rule:evenodd;clip-rule:evenodd;stroke-linecap:round;stroke-linejoin:round;stroke-miterlimit:2;"
   id="svg21">
  <metadata
   id="metadata27">
    <rdf:RDF>
      <cc:Work
   rdf:about="">
        <dc:format>image/svg+xml</dc:format>

        <dc:type
   rdf:resource="http://purl.org/dc/dcmitype/StillImage" />

      </cc:Work>

    </rdf:RDF>

  </metadata>

  <defs
   id="defs25" />

  
  <path
   d="M37.778,31c0.726,-1.366 1.608,-2.656 2.636,-3.842c2.164,-2.498 4.203,-4.85 4.203,-4.85"
   style="fill:none;stroke:#222a33;stroke-width:1.5px;"
   id="path3" />

  <path
   d="M35.355,41.64c0,0 -0.451,-4.061 -0.808,-7.274c-0.276,-2.48 -1.421,-4.783 -3.232,-6.5c-3.977,-3.771 -10.78,-10.22 -10.78,-10.22"
   style="fill:none;stroke:#222a33;stroke-width:1.5px;"
   id="path5" />

  <path
   d="M31.515,28.055c0,0 1.868,-6.741 -1.717,-12.35c-2.806,-4.389 -14.075,-6.824 -18.845,-7.676c-0.57,-0.099 -1.155,0.051 -1.606,0.412c-0.452,0.362 -0.726,0.899 -0.755,1.477c-0.148,3.649 0.331,11.056 5.768,16.902c7.515,8.08 14.203,4.94 14.203,4.94"
   style="fill:none;stroke:#222a33;stroke-width:1.5px;"
   id="path7" />

  <path
   d="M39.101,28.673c0,0 -2.344,-4.998 -0.296,-9.836c1.535,-3.625 9.347,-6.882 13.166,-8.287c0.557,-0.203 1.175,-0.151 1.69,0.143c0.515,0.294 0.875,0.8 0.984,1.383c0.549,2.978 0.888,8.42 -2.361,13.369c-4.779,7.279 -10.397,5.72 -10.397,5.72"
   style="fill:none;stroke:#222a33;stroke-width:1.5px;"
   id="path9" />

  <path
   d="M26.928,23.707l-7.072,0"
   style="fill:none;stroke:#222a33;stroke-width:1.5px;"
   id="path11" />

  <circle
   cx="40"
   cy="46"
   r="3.85"
   style="fill:none;stroke:#222a33;stroke-width:1.5px;"
   id="circle13" />

  <path
   d="M35,39.126c-0.262,0.191 -0.514,0.397 -0.753,0.617l-1.783,-0.317c-0.851,0.977 -1.505,2.109 -1.925,3.335l1.166,1.385c-0.273,1.221 -0.273,2.487 0,3.708l-1.166,1.385c0.42,1.226 1.074,2.358 1.925,3.335l1.783,-0.317c0.921,0.847 2.017,1.48 3.211,1.854l0.617,1.702c1.271,0.249 2.579,0.249 3.85,0l0.617,-1.702c1.194,-0.374 2.29,-1.007 3.211,-1.854l1.783,0.317c0.851,-0.977 1.505,-2.109 1.925,-3.335l-1.166,-1.385"
   style="fill:none;stroke:#222a33;stroke-width:1.5px;"
   id="path15" />

  <path
   d="M48.295,44.146l1.166,-1.385c-0.42,-1.226 -1.074,-2.358 -1.925,-3.335l-1.783,0.317c-0.921,-0.847 -2.017,-1.48 -3.211,-1.854l-0.617,-1.702c-1.271,-0.249 -2.579,-0.249 -3.85,0"
   style="fill:none;stroke:#222a33;stroke-width:1.5px;"
   id="path17" />

  <path
   d="M26.944,41.655c-0.586,-0.511 -1.265,-0.903 -2,-1.155l-0.831,0.699c-0.733,-0.163 -1.493,-0.163 -2.226,0l-0.831,-0.699c-0.735,0.252 -1.414,0.644 -2,1.155l0.19,1.069c-0.508,0.553 -0.888,1.211 -1.113,1.927l-1.021,0.37c-0.149,0.763 -0.149,1.548 0,2.311l1.021,0.37c0.225,0.716 0.605,1.374 1.113,1.927l-0.19,1.069c0.586,0.511 1.265,0.903 2,1.155l0.831,-0.699c0.733,0.163 1.493,0.163 2.226,0l0.831,0.699c0.735,-0.252 1.414,-0.644 2,-1.155l-0.19,-1.069c0.508,-0.553 0.888,-1.211 1.113,-1.927l1.021,-0.37c0.149,-0.763 0.149,-1.548 0,-2.311l-1.021,-0.37c-0.225,-0.716 -0.605,-1.374 -1.113,-1.927l0.19,-1.069Zm-2.932,2.769c0.968,0.558 1.3,1.797 0.741,2.765c-0.559,0.967 -1.798,1.299 -2.765,0.74c-0.968,-0.558 -1.3,-1.797 -0.741,-2.765c0.559,-0.967 1.798,-1.299 2.765,-0.74Z"
   style="fill:none;stroke:#222a33;stroke-width:1.5px;"
   id="path19" />

</svg>
