<svg version="1.1" viewBox="0.0 0.0 960.0 540.0" fill="none" stroke="none" stroke-linecap="square" stroke-miterlimit="10" xmlns:xlink="http://www.w3.org/1999/xlink" xmlns="http://www.w3.org/2000/svg"><clipPath id="p.0"><path d="m0 0l960.0 0l0 540.0l-960.0 0l0 -540.0z" clip-rule="nonzero"/></clipPath><g clip-path="url(#p.0)"><path fill="#000000" fill-opacity="0.0" d="m0 0l960.0 0l0 540.0l-960.0 0z" fill-rule="evenodd"/><path fill="#191a1f" d="m656.2376 131.17831l86.67767 0l97.92444 -56.673965l184.57874 0l0 -1.7246933l-185.67767 0l-97.550354 56.95214l-85.95282 0z" fill-rule="evenodd"/><path fill="#191a1f" d="m645.8262 130.12114c0 -2.3181458 1.9287109 -3.838852 4.3395386 -3.838852c2.5963135 0 4.321045 2.0214233 4.321045 4.3210144c0 2.577774 -2.0214233 4.302475 -4.321045 4.302475c-2.5777588 0 -4.302429 -2.299591 -4.302429 -4.302475c-0.018554688 -0.16690063 -0.037109375 -0.33380127 -0.037109375 -0.48216248zm-1.6876221 0.76034546c0 3.1712189 2.8745117 5.7675476 6.0271606 5.7675476c3.1712646 0 5.767578 -2.8930511 5.767578 -6.0457306c0 -3.1712112 -2.8930664 -6.0457077 -6.0457153 -5.7489853c-3.1712646 0 -5.7490234 2.8744965 -5.7490234 6.0271683z" fill-rule="evenodd"/><path fill="#191a1f" d="m767.4068 146.12581l48.237366 0l97.92444 -56.952133l172.60706 0l0 -1.7247009l-173.33191 0l-98.27515 56.673965l-47.161804 0z" fill-rule="evenodd"/><path fill="#191a1f" d="m757.27167 145.27252c0 -2.5963287 2.2996216 -4.3210297 4.599243 -4.3210297c2.2995605 0 4.302429 2.2996063 4.302429 4.3210297c0 2.577774 -2.2995605 4.302475 -4.302429 4.302475c-2.5963135 0 -4.599243 -2.002884 -4.599243 -4.302475zm-1.168335 0.27816772c0 3.4494019 2.8930664 5.7675476 6.0457153 5.7675476c3.1712646 0 5.7490234 -2.8930511 5.7490234 -6.0457153c0 -3.1712189 -2.8745117 -6.0457153 -6.0271606 -5.748993c-3.4494019 0 -5.767578 2.8744965 -5.767578 6.0271606z" fill-rule="evenodd"/><path fill="#191a1f" d="m713.94 60.409515l294.84894 0l0 -1.7247009l-294.84894 0z" fill-rule="evenodd"/><path fill="#191a1f" d="m704.8183 59.26014c0 -2.0028763 1.7246704 -3.7275772 4.320984 -4.302475c2.5777588 0 4.30249 2.0028763 4.30249 4.302475c0 2.5963173 -1.7247314 4.321018 -4.30249 4.321018c-2.5963135 0 -4.320984 -2.0028763 -4.320984 -4.321018zm-1.4279785 0c0 3.4679413 2.5777588 5.76754 5.7489624 5.76754c3.15271 0 5.7490234 -2.2995987 5.7490234 -5.76754c0 -3.1526756 -2.5963135 -5.7489967 -5.7490234 -5.7489967c-3.1712036 0 -5.7489624 2.596321 -5.7489624 5.7489967z" fill-rule="evenodd"/><path fill="#191a1f" d="m545.5591 8.075017l189.30188 0l91.40082 38.833534l154.11176 0l0 -2.0214233l-153.0362 0l-92.102295 -38.83353l-189.67596 0z" fill-rule="evenodd"/><path fill="#191a1f" d="m536.6387 7.2039175c0 -2.577775 1.7247314 -4.302473 4.321045 -4.302473c2.5963135 0 4.320984 1.7246983 4.320984 4.302473c0 2.5963202 -2.0214233 4.321019 -4.320984 4.321019c-2.5963135 0 -4.321045 -2.0214214 -4.321045 -4.321019zm-2.0028687 0c0 3.7461195 2.8745117 6.0457172 6.0457153 6.0457172c3.4494019 0 6.0271606 -2.8744974 6.0271606 -6.0457172c0 -3.1526747 -2.5777588 -6.027172 -6.0271606 -6.027172c-3.7460938 0 -6.0457153 2.8744972 -6.0457153 6.027172z" fill-rule="evenodd"/><path fill="#191a1f" d="m666.048 -12.640013l108.423096 0l100.82379 45.732323l0.7248535 0l144.33801 0l0 -1.7246971l-143.98724 0l-101.17462 -45.435604l-0.350708 0l-108.79718 0z" fill-rule="evenodd"/><path fill="#191a1f" d="m656.2114 -13.214287c0 -2.2995977 2.0214233 -4.321018 4.321045 -4.321018c2.5777588 0 4.30249 2.0214205 4.30249 4.321018c0 2.596321 -1.7247314 4.321019 -4.30249 4.321019c-2.2996216 0 -4.321045 -2.2995977 -4.321045 -4.321019zm-1.4464722 0c0 3.1712198 2.5963135 5.7489953 5.767517 5.7489953c3.152649 0 5.7489624 -2.5777755 5.7489624 -5.7489953c0 -3.1712189 -2.5963135 -5.748995 -5.7489624 -5.748995c-3.1712036 0 -5.767517 2.577776 -5.767517 5.748995z" fill-rule="evenodd"/><path fill="#191a1f" d="m463.13666 432.81064l-150.14151 0l-72.492966 -38.833527l-122.23104 0l0 2.0213928l121.37797 0l73.04932 38.833557l150.43823 0z" fill-rule="evenodd"/><path fill="#191a1f" d="m472.05685 433.68225c0 2.5777893 -1.7247009 4.3024597 -4.3210144 4.3024597c-2.5963135 0 -4.3210144 -1.7246704 -4.3210144 -4.3024597c0 -2.5963135 2.0214233 -4.3210144 4.3210144 -4.3210144c2.5963135 0 4.3210144 2.0214233 4.3210144 4.3210144zm2.0028687 0c0 -3.7461243 -2.8744812 -6.0457153 -6.0457153 -6.0457153c-3.4493713 0 -6.0271606 2.8745117 -6.0271606 6.0457153c0 3.1526794 2.5777893 6.0271606 6.0271606 6.0271606c3.7461243 0 6.0457153 -2.8744812 6.0457153 -6.0271606z" fill-rule="evenodd"/><path fill="#191a1f" d="m266.05157 435.1081l-233.85425 0l0 -1.7247009l233.85425 0z" fill-rule="evenodd"/><path fill="#191a1f" d="m275.24997 433.9583c0 -2.0028992 -1.7247009 -3.7276 -4.3210144 -4.30249c-2.5777588 0 -4.3024597 2.0028687 -4.3024597 4.30249c0 2.5963135 1.7247009 4.3210144 4.3024597 4.3210144c2.5963135 0 4.3210144 -2.0028687 4.3210144 -4.3210144zm1.4279785 0c0 3.467926 -2.5777588 5.767517 -5.748993 5.767517c-3.1526794 0 -5.748993 -2.299591 -5.748993 -5.767517c0 -3.1526794 2.5963135 -5.748993 5.748993 -5.748993c3.1712341 0 5.748993 2.5963135 5.748993 5.748993z" fill-rule="evenodd"/><path fill="#191a1f" d="m177.42429 417.9913l-233.85426 0l0 -1.7247009l233.85426 0z" fill-rule="evenodd"/><path fill="#191a1f" d="m186.62268 416.8415c0 -2.0028687 -1.7247009 -3.7275696 -4.3210144 -4.3024597c-2.577774 0 -4.302475 2.0028687 -4.302475 4.3024597c0 2.596344 1.7247009 4.3210144 4.302475 4.3210144c2.5963135 0 4.3210144 -2.0028687 4.3210144 -4.3210144zm1.4279785 0c0 3.4679565 -2.577774 5.7675476 -5.748993 5.7675476c-3.1526794 0 -5.748993 -2.299591 -5.748993 -5.7675476c0 -3.152649 2.5963135 -5.748993 5.748993 -5.748993c3.1712189 0 5.748993 2.596344 5.748993 5.748993z" fill-rule="evenodd"/></g></svg>