<?xml version="1.0" encoding="utf-8"?>
<!-- Generator: Adobe Illustrator 16.0.0, SVG Export Plug-In . SVG Version: 6.00 Build 0)  -->
<!DOCTYPE svg PUBLIC "-//W3C//DTD SVG 1.1//EN" "http://www.w3.org/Graphics/SVG/1.1/DTD/svg11.dtd">
<svg version="1.1" id="Layer_1" xmlns="http://www.w3.org/2000/svg" xmlns:xlink="http://www.w3.org/1999/xlink" x="0px" y="0px"
	 width="595.279px" height="334.844px" viewBox="0 0 595.279 334.844" enable-background="new 0 0 595.279 334.844"
	 xml:space="preserve">
<g>
	<g>
		<defs>
			<rect id="SVGID_1_" x="0" width="595.279" height="334.844"/>
		</defs>
		<clipPath id="SVGID_2_">
			<use xlink:href="#SVGID_1_"  overflow="visible"/>
		</clipPath>
		<path clip-path="url(#SVGID_2_)" fill="#2E2E2E" d="M30.251,205.262L30.251,205.262c-4.31,0-7.803-3.488-7.803-7.793l0,0
			c0-2.066,0.822-4.049,2.285-5.512c1.464-1.461,3.448-2.281,5.518-2.281l0,0c4.31,0,7.803,3.488,7.803,7.793l0,0
			C38.053,201.771,34.56,205.262,30.251,205.262z"/>
	</g>
	<g>
		<defs>
			<rect id="SVGID_3_" x="0" width="595.279" height="334.844"/>
		</defs>
		<clipPath id="SVGID_4_">
			<use xlink:href="#SVGID_3_"  overflow="visible"/>
		</clipPath>
		<path clip-path="url(#SVGID_4_)" fill="#53847C" d="M530.77,56.293c-4.389,0-7.954,3.564-7.954,7.953
			c0,4.39,3.565,7.955,7.954,7.955s7.953-3.565,7.953-7.955C538.723,59.857,535.158,56.293,530.77,56.293z"/>
	</g>
	<g>
		<defs>
			<rect id="SVGID_5_" x="0" width="595.279" height="334.844"/>
		</defs>
		<clipPath id="SVGID_6_">
			<use xlink:href="#SVGID_5_"  overflow="visible"/>
		</clipPath>
		<path clip-path="url(#SVGID_6_)" fill="#53847C" d="M559.115,84.34c-4.386,0-7.928,3.564-7.928,7.953s3.542,7.955,7.928,7.955
			c4.39,0,7.953-3.566,7.953-7.955S563.505,84.34,559.115,84.34z"/>
	</g>
	<g>
		<defs>
			<rect id="SVGID_7_" x="0" width="595.279" height="334.844"/>
		</defs>
		<clipPath id="SVGID_8_">
			<use xlink:href="#SVGID_7_"  overflow="visible"/>
		</clipPath>
		<path clip-path="url(#SVGID_8_)" fill="#53847C" d="M530.77,112.391c-4.389,0-7.954,3.564-7.954,7.953s3.565,7.955,7.954,7.955
			s7.953-3.566,7.953-7.955C538.723,115.958,535.158,112.391,530.77,112.391z"/>
	</g>
	<g>
		<defs>
			<rect id="SVGID_9_" x="0" width="595.279" height="334.844"/>
		</defs>
		<clipPath id="SVGID_10_">
			<use xlink:href="#SVGID_9_"  overflow="visible"/>
		</clipPath>
		<path clip-path="url(#SVGID_10_)" fill="#53847C" d="M559.115,112.391c-4.386,0-7.928,3.564-7.928,7.953s3.542,7.955,7.928,7.955
			c4.39,0,7.953-3.566,7.953-7.955C567.069,115.958,563.505,112.391,559.115,112.391z"/>
	</g>
	<g>
		<defs>
			<rect id="SVGID_11_" x="0" width="595.279" height="334.844"/>
		</defs>
		<clipPath id="SVGID_12_">
			<use xlink:href="#SVGID_11_"  overflow="visible"/>
		</clipPath>
		<path clip-path="url(#SVGID_12_)" fill="#53847C" d="M530.755,168.484c-4.386,0-7.929,3.566-7.929,7.955s3.543,7.953,7.929,7.953
			c4.389,0,7.953-3.564,7.953-7.953S535.143,168.484,530.755,168.484z"/>
	</g>
	<g>
		<defs>
			<rect id="SVGID_13_" x="0" width="595.279" height="334.844"/>
		</defs>
		<clipPath id="SVGID_14_">
			<use xlink:href="#SVGID_13_"  overflow="visible"/>
		</clipPath>
		<path clip-path="url(#SVGID_14_)" fill="#53847C" d="M559.181,56.289c-0.229,0-0.456,0.008-0.687,0.031
			c-3.891,0.321-6.958,3.389-7.279,7.253v0.101c-0.304,4.438-2.146,8.628-5.238,11.818l-2.616,2.691
			c-3.564,3.592-8.278,5.786-13.288,6.186h-0.126c-6.706,0.695-9.552,8.926-4.711,13.637c1.602,1.543,3.559,2.244,5.478,2.244
			c3.909,0,7.667-2.893,7.983-7.404v-0.125c0.227-4.488,2.072-8.75,5.212-11.995l2.317-2.395c3.614-3.638,8.405-5.832,13.514-6.181
			h0.101c4.389-0.375,7.629-4.216,7.258-8.601C566.74,59.414,563.256,56.289,559.181,56.289z"/>
	</g>
	<g>
		<defs>
			<rect id="SVGID_15_" x="0" width="595.279" height="334.844"/>
		</defs>
		<clipPath id="SVGID_16_">
			<use xlink:href="#SVGID_15_"  overflow="visible"/>
		</clipPath>
		<path clip-path="url(#SVGID_16_)" fill="#53847C" d="M530.787,140.44c-0.899,0-1.808,0.154-2.685,0.477
			c-3.167,1.121-5.262,4.111-5.289,7.455c0,3.365,2.095,6.357,5.262,7.479c0.89,0.326,1.809,0.484,2.717,0.484
			c2.313,0,4.563-1.016,6.085-2.877c2.045-2.492,5.086-3.941,8.303-3.963h0.724c0.026,0,0.05,0,0.076,0
			c2.616,0,5.074,1.268,6.606,3.416c0.475,0.695,1.071,1.32,1.745,1.818c2.366,1.846,3.737,4.688,3.716,7.705v0.248
			c-0.051,2.941-1.448,5.71-3.792,7.505c-2.691,2.068-3.737,5.607-2.665,8.824c1.096,3.191,4.086,5.359,7.479,5.389
			c0.02,0,0.038,0,0.059,0c3.365,0,6.355-2.115,7.493-5.289c1.122-3.189,0.104-6.756-2.543-8.873
			c-2.218-1.723-3.516-4.365-3.538-7.179v-1.049c0.022-2.918,1.371-5.66,3.639-7.48c3.665-3.039,3.868-8.602,0.425-11.895
			c-1.551-1.459-3.516-2.17-5.465-2.17c-2.412,0-4.807,1.086-6.376,3.193c-1.497,2.072-3.892,3.293-6.435,3.344h-1.396
			c-0.027,0-0.055,0-0.084,0c-3.062,0-5.967-1.344-7.943-3.666C535.36,141.467,533.104,140.44,530.787,140.44z"/>
	</g>
	<g>
		<defs>
			<rect id="SVGID_17_" x="0" width="595.279" height="334.844"/>
		</defs>
		<clipPath id="SVGID_18_">
			<use xlink:href="#SVGID_17_"  overflow="visible"/>
		</clipPath>
		<path clip-path="url(#SVGID_18_)" fill="#53847C" d="M530.77,196.73c-4.389,0-7.954,3.564-7.954,7.953s3.565,7.953,7.954,7.953
			s7.953-3.564,7.953-7.953S535.158,196.73,530.77,196.73z"/>
	</g>
	<g>
		<defs>
			<rect id="SVGID_19_" x="0" width="595.279" height="334.844"/>
		</defs>
		<clipPath id="SVGID_20_">
			<use xlink:href="#SVGID_19_"  overflow="visible"/>
		</clipPath>
		<path clip-path="url(#SVGID_20_)" fill="#53847C" d="M559.115,196.73c-4.386,0-7.928,3.564-7.928,7.953s3.542,7.953,7.928,7.953
			c4.39,0,7.953-3.564,7.953-7.953S563.505,196.73,559.115,196.73z"/>
	</g>
	<g>
		<defs>
			<rect id="SVGID_21_" x="0" width="595.279" height="334.844"/>
		</defs>
		<clipPath id="SVGID_22_">
			<use xlink:href="#SVGID_21_"  overflow="visible"/>
		</clipPath>
		<path clip-path="url(#SVGID_22_)" fill="#53847C" d="M30.251,261.869L30.251,261.869c-4.31,0-7.803-3.488-7.803-7.793l0,0
			c0-2.064,0.822-4.049,2.285-5.51c1.464-1.463,3.448-2.283,5.518-2.283l0,0c4.31,0,7.803,3.488,7.803,7.793l0,0
			C38.053,258.381,34.56,261.869,30.251,261.869z"/>
	</g>
	<g>
		<defs>
			<rect id="SVGID_23_" x="0" width="595.279" height="334.844"/>
		</defs>
		<clipPath id="SVGID_24_">
			<use xlink:href="#SVGID_23_"  overflow="visible"/>
		</clipPath>
		<path clip-path="url(#SVGID_24_)" fill="#53847C" d="M30.251,233.564L30.251,233.564c-4.31,0-7.803-3.49-7.803-7.793l0,0
			c0-2.066,0.822-4.049,2.285-5.51c1.464-1.463,3.448-2.283,5.518-2.283l0,0c4.31,0,7.803,3.488,7.803,7.793l0,0
			C38.053,230.074,34.56,233.564,30.251,233.564z"/>
	</g>
	<g>
		<defs>
			<rect id="SVGID_25_" x="0" width="595.279" height="334.844"/>
		</defs>
		<clipPath id="SVGID_26_">
			<use xlink:href="#SVGID_25_"  overflow="visible"/>
		</clipPath>
		<path clip-path="url(#SVGID_26_)" fill="#53847C" d="M30.254,205.262L30.254,205.262c-4.309,0-7.803-3.49-7.803-7.793l0,0
			c0-2.066,0.822-4.049,2.286-5.512c1.463-1.461,3.447-2.281,5.517-2.281l0,0c4.311,0,7.804,3.486,7.804,7.793l0,0
			C38.057,201.77,34.564,205.262,30.254,205.262z"/>
	</g>
</g>
</svg>
