<svg width="9578" height="5388" viewBox="0 0 9578 5388" fill="none" xmlns="http://www.w3.org/2000/svg">
<g clip-path="url(#clip0_222_5)">
<mask id="mask0_222_5" style="mask-type:luminance" maskUnits="userSpaceOnUse" x="0" y="0" width="9578" height="5389">
<path d="M9578 0H0V5388H9578V0Z" fill="white"/>
</mask>
<g mask="url(#mask0_222_5)">
<path d="M486.737 3302.87C417.389 3302.87 361.187 3246.74 361.187 3177.47C361.187 3144.23 374.413 3112.32 397.952 3088.81C421.508 3065.3 453.43 3052.07 486.737 3052.07C556.068 3052.07 612.27 3108.23 612.27 3177.47C612.27 3246.73 556.068 3302.87 486.737 3302.87Z" fill="#70913A"/>
</g>
<mask id="mask1_222_5" style="mask-type:luminance" maskUnits="userSpaceOnUse" x="0" y="0" width="9578" height="5389">
<path d="M9578 0H0V5388H9578V0Z" fill="white"/>
</mask>
<g mask="url(#mask1_222_5)">
<path d="M8540.06 905.799C8469.44 905.799 8412.08 963.164 8412.08 1033.79C8412.08 1104.41 8469.44 1161.78 8540.06 1161.78C8610.67 1161.78 8668.02 1104.41 8668.02 1033.79C8668.02 963.164 8610.66 905.799 8540.06 905.799Z" fill="#70913A"/>
</g>
<mask id="mask2_222_5" style="mask-type:luminance" maskUnits="userSpaceOnUse" x="0" y="0" width="9578" height="5389">
<path d="M9578 0H0V5388H9578V0Z" fill="white"/>
</mask>
<g mask="url(#mask2_222_5)">
<path d="M8996.12 1357.11C8925.55 1357.11 8868.56 1414.47 8868.56 1485.09C8868.56 1555.72 8925.55 1613.08 8996.12 1613.08C9066.74 1613.08 9124.09 1555.72 9124.09 1485.09C9124.09 1414.47 9066.74 1357.11 8996.12 1357.11Z" fill="#70913A"/>
</g>
<mask id="mask3_222_5" style="mask-type:luminance" maskUnits="userSpaceOnUse" x="0" y="0" width="9578" height="5389">
<path d="M9578 0H0V5388H9578V0Z" fill="white"/>
</mask>
<g mask="url(#mask3_222_5)">
<path d="M8540.06 1808.48C8469.44 1808.48 8412.08 1865.84 8412.08 1936.46C8412.08 2007.09 8469.44 2064.45 8540.06 2064.45C8610.67 2064.45 8668.02 2007.09 8668.02 1936.46C8668.02 1865.86 8610.66 1808.48 8540.06 1808.48Z" fill="#70913A"/>
</g>
<mask id="mask4_222_5" style="mask-type:luminance" maskUnits="userSpaceOnUse" x="0" y="0" width="9578" height="5389">
<path d="M9578 0H0V5388H9578V0Z" fill="white"/>
</mask>
<g mask="url(#mask4_222_5)">
<path d="M8996.12 1808.48C8925.55 1808.48 8868.56 1865.84 8868.56 1936.46C8868.56 2007.09 8925.55 2064.45 8996.12 2064.45C9066.74 2064.45 9124.09 2007.09 9124.09 1936.46C9124.1 1865.86 9066.74 1808.48 8996.12 1808.48Z" fill="#70913A"/>
</g>
<mask id="mask5_222_5" style="mask-type:luminance" maskUnits="userSpaceOnUse" x="0" y="0" width="9578" height="5389">
<path d="M9578 0H0V5388H9578V0Z" fill="white"/>
</mask>
<g mask="url(#mask5_222_5)">
<path d="M8539.8 2711.1C8469.24 2711.1 8412.24 2768.47 8412.24 2839.09C8412.24 2909.72 8469.24 2967.08 8539.8 2967.08C8610.42 2967.08 8667.78 2909.72 8667.78 2839.09C8667.78 2768.47 8610.42 2711.1 8539.8 2711.1Z" fill="#70913A"/>
</g>
<mask id="mask6_222_5" style="mask-type:luminance" maskUnits="userSpaceOnUse" x="0" y="0" width="9578" height="5389">
<path d="M9578 0H0V5388H9578V0Z" fill="white"/>
</mask>
<g mask="url(#mask6_222_5)">
<path d="M8997.19 905.751C8993.5 905.751 8989.85 905.879 8986.15 906.25C8923.54 911.415 8874.19 960.782 8869.01 1022.96V1024.57C8864.14 1095.98 8834.5 1163.4 8784.73 1214.73L8742.64 1258.05C8685.28 1315.85 8609.43 1351.15 8528.84 1357.57H8526.81C8418.91 1368.79 8373.12 1501.22 8451.01 1577.01C8476.77 1601.83 8508.26 1613.11 8539.14 1613.11C8602.05 1613.11 8662.5 1566.58 8667.6 1493.99V1491.96C8671.24 1419.75 8700.94 1351.17 8751.46 1298.97L8788.74 1260.45C8846.89 1201.91 8923.98 1166.59 9006.18 1160.99H9007.79C9078.41 1154.95 9130.54 1093.15 9124.57 1022.59C9118.81 956.035 9062.74 905.751 8997.19 905.751Z" fill="#70913A"/>
</g>
<mask id="mask7_222_5" style="mask-type:luminance" maskUnits="userSpaceOnUse" x="0" y="0" width="9578" height="5389">
<path d="M9578 0H0V5388H9578V0Z" fill="white"/>
</mask>
<g mask="url(#mask7_222_5)">
<path d="M8540.33 2259.83C8525.85 2259.83 8511.24 2262.29 8497.13 2267.47C8446.17 2285.53 8412.46 2333.66 8412.03 2387.45C8412.03 2441.61 8445.74 2489.74 8496.69 2507.79C8511 2513.04 8525.78 2515.57 8540.39 2515.57C8577.61 2515.57 8613.83 2499.23 8638.3 2469.29C8671.2 2429.17 8720.13 2405.87 8771.9 2405.5H8783.54C8783.96 2405.5 8784.35 2405.5 8784.77 2405.5C8826.86 2405.5 8866.41 2425.91 8891.06 2460.47C8898.7 2471.69 8908.31 2481.73 8919.15 2489.74C8957.22 2519.44 8979.28 2565.17 8978.92 2613.72V2617.73C8978.12 2665.05 8955.63 2709.61 8917.91 2738.51C8874.61 2771.77 8857.78 2828.71 8875.03 2880.48C8892.67 2931.86 8940.77 2966.74 8995.37 2967.19C8995.67 2967.19 8995.98 2967.19 8996.3 2967.19C9050.46 2967.19 9098.57 2933.18 9116.88 2882.09C9134.93 2830.77 9118.55 2773.38 9075.96 2739.31C9040.28 2711.59 9019.39 2669.06 9019.04 2623.78V2606.9C9019.39 2559.95 9041.1 2515.82 9077.57 2486.55C9136.54 2437.62 9139.81 2348.14 9084.41 2295.15C9059.45 2271.67 9027.84 2260.22 8996.48 2260.22C8957.67 2260.22 8919.15 2277.71 8893.89 2311.61C8869.8 2344.95 8831.28 2364.6 8790.37 2365.4H8767.89C8767.45 2365.4 8767.02 2365.4 8766.54 2365.4C8717.29 2365.4 8670.53 2343.78 8638.73 2306.43C8613.91 2276.34 8577.61 2259.83 8540.33 2259.83Z" fill="#70913A"/>
</g>
<mask id="mask8_222_5" style="mask-type:luminance" maskUnits="userSpaceOnUse" x="0" y="0" width="9578" height="5389">
<path d="M9578 0H0V5388H9578V0Z" fill="white"/>
</mask>
<g mask="url(#mask8_222_5)">
<path d="M8540.06 3165.61C8469.44 3165.61 8412.08 3222.96 8412.08 3293.59C8412.08 3364.21 8469.44 3421.56 8540.06 3421.56C8610.67 3421.56 8668.02 3364.21 8668.02 3293.59C8668.02 3222.96 8610.66 3165.61 8540.06 3165.61Z" fill="#70913A"/>
</g>
<mask id="mask9_222_5" style="mask-type:luminance" maskUnits="userSpaceOnUse" x="0" y="0" width="9578" height="5389">
<path d="M9578 0H0V5388H9578V0Z" fill="white"/>
</mask>
<g mask="url(#mask9_222_5)">
<path d="M8996.12 3165.61C8925.55 3165.61 8868.56 3222.96 8868.56 3293.59C8868.56 3364.21 8925.55 3421.56 8996.12 3421.56C9066.74 3421.56 9124.09 3364.21 9124.09 3293.59C9124.09 3222.96 9066.74 3165.61 8996.12 3165.61Z" fill="#70913A"/>
</g>
<mask id="mask10_222_5" style="mask-type:luminance" maskUnits="userSpaceOnUse" x="0" y="0" width="9578" height="5389">
<path d="M9578 0H0V5388H9578V0Z" fill="white"/>
</mask>
<g mask="url(#mask10_222_5)">
<path d="M486.737 4213.77C417.389 4213.77 361.187 4157.61 361.187 4088.37C361.187 4055.13 374.413 4023.22 397.952 3999.71C421.508 3976.17 453.43 3962.97 486.737 3962.97C556.068 3962.97 612.27 4019.1 612.27 4088.37C612.27 4157.61 556.068 4213.77 486.737 4213.77Z" fill="#70913A"/>
</g>
<mask id="mask11_222_5" style="mask-type:luminance" maskUnits="userSpaceOnUse" x="0" y="0" width="9578" height="5389">
<path d="M9578 0H0V5388H9578V0Z" fill="white"/>
</mask>
<g mask="url(#mask11_222_5)">
<path d="M486.737 3758.31C417.389 3758.31 361.187 3702.15 361.187 3632.91C361.187 3599.67 374.413 3567.76 397.952 3544.25C421.508 3520.71 453.43 3507.52 486.737 3507.52C556.068 3507.52 612.27 3563.64 612.27 3632.91C612.27 3702.15 556.068 3758.31 486.737 3758.31Z" fill="#70913A"/>
</g>
<mask id="mask12_222_5" style="mask-type:luminance" maskUnits="userSpaceOnUse" x="0" y="0" width="9578" height="5389">
<path d="M9578 0H0V5388H9578V0Z" fill="white"/>
</mask>
<g mask="url(#mask12_222_5)">
<path d="M486.785 3302.87C417.453 3302.87 361.235 3246.71 361.235 3177.47C361.235 3144.23 374.461 3112.32 398.017 3088.81C421.556 3065.3 453.479 3052.07 486.785 3052.07C556.132 3052.07 612.335 3108.2 612.335 3177.47C612.335 3246.7 556.132 3302.87 486.785 3302.87Z" fill="#70913A"/>
</g>
</g>
<defs>
<clipPath id="clip0_222_5">
<rect width="9578" height="5388" fill="white"/>
</clipPath>
</defs>
</svg>
