<?xml version="1.0" encoding="utf-8"?>
<!-- Generator: Adobe Illustrator 16.0.0, SVG Export Plug-In . SVG Version: 6.00 Build 0)  -->
<!DOCTYPE svg PUBLIC "-//W3C//DTD SVG 1.1//EN" "http://www.w3.org/Graphics/SVG/1.1/DTD/svg11.dtd">
<svg version="1.1" id="Layer_1" xmlns="http://www.w3.org/2000/svg" xmlns:xlink="http://www.w3.org/1999/xlink" x="0px" y="0px"
	 width="595.279px" height="334.844px" viewBox="0 253.522 595.279 334.844" enable-background="new 0 253.522 595.279 334.844"
	 xml:space="preserve">
<g>
	<defs>
		<rect id="SVGID_1_" x="0" y="253.522" width="595.279" height="334.844"/>
	</defs>
	<clipPath id="SVGID_2_">
		<use xlink:href="#SVGID_1_"  overflow="visible"/>
	</clipPath>
	<path clip-path="url(#SVGID_2_)" fill="#2E2E2E" d="M30.251,458.783L30.251,458.783c-4.31,0-7.803-3.488-7.803-7.793l0,0
		c0-2.066,0.822-4.049,2.285-5.51c1.464-1.461,3.448-2.283,5.518-2.283l0,0c4.309,0,7.802,3.49,7.802,7.793l0,0
		C38.053,455.294,34.56,458.783,30.251,458.783z"/>
	<path clip-path="url(#SVGID_2_)" fill="#2E2E2E" d="M530.77,309.814c-4.389,0-7.954,3.565-7.954,7.954s3.565,7.954,7.954,7.954
		s7.953-3.565,7.953-7.954S535.158,309.814,530.77,309.814z"/>
	<path clip-path="url(#SVGID_2_)" fill="#2E2E2E" d="M559.115,337.861c-4.386,0-7.928,3.565-7.928,7.954s3.542,7.954,7.928,7.954
		c4.389,0,7.953-3.565,7.953-7.954S563.504,337.861,559.115,337.861z"/>
	<path clip-path="url(#SVGID_2_)" fill="#2E2E2E" d="M530.77,365.912c-4.389,0-7.954,3.565-7.954,7.954
		c0,4.389,3.565,7.954,7.954,7.954s7.953-3.565,7.953-7.954C538.723,369.478,535.158,365.912,530.77,365.912z"/>
	<path clip-path="url(#SVGID_2_)" fill="#2E2E2E" d="M559.115,365.912c-4.386,0-7.928,3.565-7.928,7.954
		c0,4.389,3.542,7.954,7.928,7.954c4.389,0,7.953-3.565,7.953-7.954C567.069,369.478,563.504,365.912,559.115,365.912z"/>
	<path clip-path="url(#SVGID_2_)" fill="#2E2E2E" d="M530.754,422.007c-4.385,0-7.928,3.565-7.928,7.954s3.543,7.954,7.928,7.954
		c4.389,0,7.954-3.565,7.954-7.954S535.143,422.007,530.754,422.007z"/>
	<path clip-path="url(#SVGID_2_)" fill="#2E2E2E" d="M559.181,309.811c-0.229,0-0.456,0.008-0.686,0.031
		c-3.891,0.321-6.958,3.389-7.28,7.253v0.1c-0.303,4.438-2.145,8.628-5.238,11.818l-2.616,2.692
		c-3.565,3.592-8.279,5.786-13.288,6.185h-0.126c-6.706,0.697-9.552,8.927-4.711,13.637c1.601,1.543,3.558,2.244,5.477,2.244
		c3.91,0,7.667-2.892,7.984-7.403v-0.126c0.226-4.488,2.072-8.75,5.212-11.994l2.317-2.394c3.614-3.638,8.405-5.833,13.514-6.181
		h0.1c4.389-0.375,7.629-4.216,7.258-8.601C566.74,312.936,563.255,309.811,559.181,309.811z"/>
	<path clip-path="url(#SVGID_2_)" fill="#2E2E2E" d="M530.787,393.962c-0.9,0-1.808,0.153-2.685,0.475
		c-3.167,1.122-5.262,4.113-5.289,7.456c0,3.366,2.095,6.357,5.262,7.479c0.889,0.326,1.808,0.483,2.716,0.483
		c2.313,0,4.564-1.015,6.085-2.876c2.045-2.493,5.086-3.941,8.303-3.964h0.724c0.026,0,0.05,0,0.076,0
		c2.616,0,5.074,1.268,6.606,3.416c0.475,0.697,1.072,1.321,1.746,1.819c2.366,1.846,3.737,4.688,3.715,7.705v0.249
		c-0.05,2.941-1.448,5.71-3.792,7.506c-2.691,2.067-3.737,5.606-2.665,8.823c1.096,3.193,4.086,5.361,7.479,5.389
		c0.019,0,0.038,0,0.058,0c3.366,0,6.356-2.114,7.494-5.289c1.122-3.189,0.104-6.756-2.543-8.873
		c-2.218-1.723-3.516-4.366-3.538-7.18v-1.049c0.022-2.918,1.371-5.66,3.638-7.479c3.665-3.041,3.868-8.602,0.425-11.895
		c-1.551-1.459-3.516-2.171-5.465-2.171c-2.412,0-4.806,1.087-6.376,3.194c-1.497,2.072-3.891,3.293-6.434,3.343h-1.397
		c-0.027,0-0.054,0-0.084,0c-3.061,0-5.967-1.344-7.943-3.665C535.36,394.988,533.104,393.962,530.787,393.962z"/>
	<path clip-path="url(#SVGID_2_)" fill="#2E2E2E" d="M530.77,450.253c-4.389,0-7.954,3.564-7.954,7.953s3.565,7.953,7.954,7.953
		s7.953-3.564,7.953-7.953S535.158,450.253,530.77,450.253z"/>
	<path clip-path="url(#SVGID_2_)" fill="#2E2E2E" d="M559.115,450.253c-4.386,0-7.928,3.564-7.928,7.953s3.542,7.953,7.928,7.953
		c4.389,0,7.953-3.564,7.953-7.953S563.504,450.253,559.115,450.253z"/>
	<path clip-path="url(#SVGID_2_)" fill="#2E2E2E" d="M30.251,515.392L30.251,515.392c-4.31,0-7.803-3.49-7.803-7.793l0,0
		c0-2.066,0.822-4.049,2.285-5.51c1.464-1.463,3.448-2.283,5.518-2.283l0,0c4.309,0,7.802,3.488,7.802,7.793l0,0
		C38.053,511.902,34.56,515.392,30.251,515.392z"/>
	<path clip-path="url(#SVGID_2_)" fill="#2E2E2E" d="M30.251,487.087L30.251,487.087c-4.31,0-7.803-3.49-7.803-7.793l0,0
		c0-2.066,0.822-4.049,2.285-5.51c1.464-1.463,3.448-2.283,5.518-2.283l0,0c4.309,0,7.802,3.488,7.802,7.793l0,0
		C38.053,483.597,34.56,487.087,30.251,487.087z"/>
	<path clip-path="url(#SVGID_2_)" fill="#2E2E2E" d="M30.254,458.783L30.254,458.783c-4.309,0-7.803-3.49-7.803-7.793l0,0
		c0-2.066,0.822-4.049,2.286-5.51c1.463-1.461,3.447-2.283,5.517-2.283l0,0c4.31,0,7.803,3.488,7.803,7.793l0,0
		C38.057,455.292,34.564,458.783,30.254,458.783z"/>
</g>
</svg>
